#Comment line ignore any data following # character 
#Hierarchical Translation and Rotation (.htr) file 
[Header]	
#Header keywords are followed by a single value 
FileType HTR		#Single word string
DataType HTRS		#Translation followed by rotation and scale data
FileVersion 1		#integer
NumSegments 84		#integer
NumFrames 2		#integer
DataFrameRate 30		#integer, data frame rate in this file
EulerRotationOrder ZYX
CalibrationUnits mm
RotationUnits Degrees
GlobalAxisofGravity Y
BoneLengthAxis Y
ScaleFactor 1.00
[SegmentNames&Hierarchy]
#CHILD	PARENT
MASTER GLOBAL
root MASTER
chest root
L_mid_tent01 root
R_mid_tent01 root
spine01 root
Bip01_Neck chest
L_humerus chest
R_humerus chest
weapon_bone chest
Bip01_Head Bip01_Neck
eye_left_bone Bip01_Head
eye_right_bone Bip01_Head
L_forearm L_humerus
L_front_hand L_forearm
L_weapon_bone L_forearm
L_front_hand01_01 L_front_hand
L_front_hand02_01 L_front_hand
L_front_hand03_01 L_front_hand
L_front_hand01_02 L_front_hand01_01
L_front_hand02_02 L_front_hand02_01
L_front_hand03_02 L_front_hand03_01
R_forearm R_humerus
R_front_hand R_forearm
R_weapon_bone R_forearm
R_front_hand01_01 R_front_hand
R_front_hand02_01 R_front_hand
R_front_hand03_01 R_front_hand
R_front_hand01_02 R_front_hand01_01
R_front_hand02_02 R_front_hand02_01
R_front_hand03_02 R_front_hand03_01
null_rope01_connect L_mid_tent01
Rope1_Seg01 null_rope01_connect
Rope1_Seg02 Rope1_Seg01
Rope1_Seg03 Rope1_Seg02
Rope1_Seg04 Rope1_Seg03
Rope1_Seg05 Rope1_Seg04
Rope1_Seg06 Rope1_Seg05
Rope1_Seg07 Rope1_Seg06
Rope1_Seg09 Rope1_Seg07
L_mid_hand01 Rope1_Seg09
L_mid_hand02 Rope1_Seg09
L_mid_hand03 Rope1_Seg09
null_rope02_connect R_mid_tent01
Rope2_Seg01 null_rope02_connect
Rope2_Seg02 Rope2_Seg01
Rope2_Seg03 Rope2_Seg02
Rope2_Seg04 Rope2_Seg03
Rope2_Seg05 Rope2_Seg04
Rope2_Seg06 Rope2_Seg05
Rope2_Seg07 Rope2_Seg06
Rope2_Seg09 Rope2_Seg07
R_mid_hand01 Rope2_Seg09
R_mid_hand02 Rope2_Seg09
R_mid_hand03 Rope2_Seg09
spine02 spine01
spine03 spine02
pelvis spine03
null_rope03_connect pelvis
null_rope04_connect pelvis
Rope3_Seg01 null_rope03_connect
Rope3_Seg02 Rope3_Seg01
Rope3_Seg03 Rope3_Seg02
Rope3_Seg04 Rope3_Seg03
Rope3_Seg05 Rope3_Seg04
Rope3_Seg06 Rope3_Seg05
Rope3_Seg07 Rope3_Seg06
Rope3_Seg08 Rope3_Seg07
Rope3_Seg09 Rope3_Seg08
R_rear_hand01 Rope3_Seg09
R_rear_hand02 Rope3_Seg09
R_rear_hand03 Rope3_Seg09
Rope4_Seg01 null_rope04_connect
Rope4_Seg02 Rope4_Seg01
Rope4_Seg03 Rope4_Seg02
Rope4_Seg04 Rope4_Seg03
Rope4_Seg05 Rope4_Seg04
Rope4_Seg06 Rope4_Seg05
Rope4_Seg07 Rope4_Seg06
Rope4_Seg08 Rope4_Seg07
Rope4_Seg09 Rope4_Seg08
L_rear_hand01 Rope4_Seg09
L_rear_hand02 Rope4_Seg09
L_rear_hand03 Rope4_Seg09
[BasePosition]
#SegmentName Tx, Ty, Tz, Rx, Ry, Rz, BoneLength
MASTER 0.000000 0.000000 0.000000 -90.000000 0.000000 0.000000 10.000000 
root 0.000000 0.000000 0.000000 0.000000 0.000000 0.000000 10.000000 
chest 0.000000 0.000000 0.000000 0.000000 0.000000 0.000000 10.000000 
L_mid_tent01 0.000000 0.000000 0.000000 0.000000 0.000000 0.000000 10.000000 
R_mid_tent01 0.000000 0.000000 0.000000 0.000000 0.000000 0.000000 10.000000 
spine01 0.000000 0.000000 0.000000 0.000000 0.000000 0.000000 10.000000 
Bip01_Neck 0.000000 0.000000 0.000000 0.000000 0.000000 0.000000 10.000000 
L_humerus 0.000000 0.000000 0.000000 0.000000 0.000000 0.000000 10.000000 
R_humerus 0.000000 0.000000 0.000000 0.000000 0.000000 0.000000 10.000000 
weapon_bone 0.000000 0.000000 0.000000 0.000000 0.000000 0.000000 10.000000 
Bip01_Head 0.000000 0.000000 0.000000 0.000000 0.000000 0.000000 10.000000 
eye_left_bone 0.000000 0.000000 0.000000 0.000000 0.000000 0.000000 10.000000 
eye_right_bone 0.000000 0.000000 0.000000 0.000000 0.000000 0.000000 10.000000 
L_forearm 0.000000 0.000000 0.000000 0.000000 0.000000 0.000000 10.000000 
L_front_hand 0.000000 0.000000 0.000000 0.000000 0.000000 0.000000 10.000000 
L_weapon_bone 0.000000 0.000000 0.000000 0.000000 0.000000 0.000000 10.000000 
L_front_hand01_01 0.000000 0.000000 0.000000 0.000000 0.000000 0.000000 10.000000 
L_front_hand02_01 0.000000 0.000000 0.000000 0.000000 0.000000 0.000000 10.000000 
L_front_hand03_01 0.000000 0.000000 0.000000 0.000000 0.000000 0.000000 10.000000 
L_front_hand01_02 0.000000 0.000000 0.000000 0.000000 0.000000 0.000000 10.000000 
L_front_hand02_02 0.000000 0.000000 0.000000 0.000000 0.000000 0.000000 10.000000 
L_front_hand03_02 0.000000 0.000000 0.000000 0.000000 0.000000 0.000000 10.000000 
R_forearm 0.000000 0.000000 0.000000 0.000000 0.000000 0.000000 10.000000 
R_front_hand 0.000000 0.000000 0.000000 0.000000 0.000000 0.000000 10.000000 
R_weapon_bone 0.000000 0.000000 0.000000 0.000000 0.000000 0.000000 10.000000 
R_front_hand01_01 0.000000 0.000000 0.000000 0.000000 0.000000 0.000000 10.000000 
R_front_hand02_01 0.000000 0.000000 0.000000 0.000000 0.000000 0.000000 10.000000 
R_front_hand03_01 0.000000 0.000000 0.000000 0.000000 0.000000 0.000000 10.000000 
R_front_hand01_02 0.000000 0.000000 0.000000 0.000000 0.000000 0.000000 10.000000 
R_front_hand02_02 0.000000 0.000000 0.000000 0.000000 0.000000 0.000000 10.000000 
R_front_hand03_02 0.000000 0.000000 0.000000 0.000000 0.000000 0.000000 10.000000 
null_rope01_connect 0.000000 0.000000 0.000000 0.000000 0.000000 0.000000 10.000000 
Rope1_Seg01 0.000000 0.000000 0.000000 0.000000 0.000000 0.000000 10.000000 
Rope1_Seg02 0.000000 0.000000 0.000000 0.000000 0.000000 0.000000 10.000000 
Rope1_Seg03 0.000000 0.000000 0.000000 0.000000 0.000000 0.000000 10.000000 
Rope1_Seg04 0.000000 0.000000 0.000000 0.000000 0.000000 0.000000 10.000000 
Rope1_Seg05 0.000000 0.000000 0.000000 0.000000 0.000000 0.000000 10.000000 
Rope1_Seg06 0.000000 0.000000 0.000000 0.000000 0.000000 0.000000 10.000000 
Rope1_Seg07 0.000000 0.000000 0.000000 0.000000 0.000000 0.000000 10.000000 
Rope1_Seg09 0.000000 0.000000 0.000000 0.000000 0.000000 0.000000 10.000000 
L_mid_hand01 0.000000 0.000000 0.000000 0.000000 0.000000 0.000000 10.000000 
L_mid_hand02 0.000000 0.000000 0.000000 0.000000 0.000000 0.000000 10.000000 
L_mid_hand03 0.000000 0.000000 0.000000 0.000000 0.000000 0.000000 10.000000 
null_rope02_connect 0.000000 0.000000 0.000000 0.000000 0.000000 0.000000 10.000000 
Rope2_Seg01 0.000000 0.000000 0.000000 0.000000 0.000000 0.000000 10.000000 
Rope2_Seg02 0.000000 0.000000 0.000000 0.000000 0.000000 0.000000 10.000000 
Rope2_Seg03 0.000000 0.000000 0.000000 0.000000 0.000000 0.000000 10.000000 
Rope2_Seg04 0.000000 0.000000 0.000000 0.000000 0.000000 0.000000 10.000000 
Rope2_Seg05 0.000000 0.000000 0.000000 0.000000 0.000000 0.000000 10.000000 
Rope2_Seg06 0.000000 0.000000 0.000000 0.000000 0.000000 0.000000 10.000000 
Rope2_Seg07 0.000000 0.000000 0.000000 0.000000 0.000000 0.000000 10.000000 
Rope2_Seg09 0.000000 0.000000 0.000000 0.000000 0.000000 0.000000 10.000000 
R_mid_hand01 0.000000 0.000000 0.000000 0.000000 0.000000 0.000000 10.000000 
R_mid_hand02 0.000000 0.000000 0.000000 0.000000 0.000000 0.000000 10.000000 
R_mid_hand03 0.000000 0.000000 0.000000 0.000000 0.000000 0.000000 10.000000 
spine02 0.000000 0.000000 0.000000 0.000000 0.000000 0.000000 10.000000 
spine03 0.000000 0.000000 0.000000 0.000000 0.000000 0.000000 10.000000 
pelvis 0.000000 0.000000 0.000000 0.000000 0.000000 0.000000 10.000000 
null_rope03_connect 0.000000 0.000000 0.000000 0.000000 0.000000 0.000000 10.000000 
null_rope04_connect 0.000000 0.000000 0.000000 0.000000 0.000000 0.000000 10.000000 
Rope3_Seg01 0.000000 0.000000 0.000000 0.000000 0.000000 0.000000 10.000000 
Rope3_Seg02 0.000000 0.000000 0.000000 0.000000 0.000000 0.000000 10.000000 
Rope3_Seg03 0.000000 0.000000 0.000000 0.000000 0.000000 0.000000 10.000000 
Rope3_Seg04 0.000000 0.000000 0.000000 0.000000 0.000000 0.000000 10.000000 
Rope3_Seg05 0.000000 0.000000 0.000000 0.000000 0.000000 0.000000 10.000000 
Rope3_Seg06 0.000000 0.000000 0.000000 0.000000 0.000000 0.000000 10.000000 
Rope3_Seg07 0.000000 0.000000 0.000000 0.000000 0.000000 0.000000 10.000000 
Rope3_Seg08 0.000000 0.000000 0.000000 0.000000 0.000000 0.000000 10.000000 
Rope3_Seg09 0.000000 0.000000 0.000000 0.000000 0.000000 0.000000 10.000000 
R_rear_hand01 0.000000 0.000000 0.000000 0.000000 0.000000 0.000000 10.000000 
R_rear_hand02 0.000000 0.000000 0.000000 0.000000 0.000000 0.000000 10.000000 
R_rear_hand03 0.000000 0.000000 0.000000 0.000000 0.000000 0.000000 10.000000 
Rope4_Seg01 0.000000 0.000000 0.000000 0.000000 0.000000 0.000000 10.000000 
Rope4_Seg02 0.000000 0.000000 0.000000 0.000000 0.000000 0.000000 10.000000 
Rope4_Seg03 0.000000 0.000000 0.000000 0.000000 0.000000 0.000000 10.000000 
Rope4_Seg04 0.000000 0.000000 0.000000 0.000000 0.000000 0.000000 10.000000 
Rope4_Seg05 0.000000 0.000000 0.000000 0.000000 0.000000 0.000000 10.000000 
Rope4_Seg06 0.000000 0.000000 0.000000 0.000000 0.000000 0.000000 10.000000 
Rope4_Seg07 0.000000 0.000000 0.000000 0.000000 0.000000 0.000000 10.000000 
Rope4_Seg08 0.000000 0.000000 0.000000 0.000000 0.000000 0.000000 10.000000 
Rope4_Seg09 0.000000 0.000000 0.000000 0.000000 0.000000 0.000000 10.000000 
L_rear_hand01 0.000000 0.000000 0.000000 0.000000 0.000000 0.000000 10.000000 
L_rear_hand02 0.000000 0.000000 0.000000 0.000000 0.000000 0.000000 10.000000 
L_rear_hand03 0.000000 0.000000 0.000000 0.000000 0.000000 0.000000 10.000000 
#Beginning of Data. Separated by tabs
#Fr	Tx	Ty	Tz	Rx	Ry	Rz	SF
[MASTER]
36 -0.000593 3879.677246 2807.847900 0.001660 0.001660 0.001660 4789.144531
37 -0.000595 3912.360107 2851.290527 0.001660 0.001660 0.001660 4841.117676
[root]
36 -16.502144 -12.332731 1463.264404 -91.699875 -16.420092 -89.544685 1463.409424
37 -16.502136 -3.818333 1457.377930 -91.710373 -14.520837 -89.514603 1457.476318
[chest]
36 -84.512650 -34.090519 0.000000 -2.123243 0.302644 171.702591 91.129311
37 -84.512650 -34.090519 0.000000 -2.134893 0.220621 170.854172 91.129311
[L_mid_tent01]
36 27.298912 22.178970 -249.918640 -24.436398 12.159901 9.716883 252.381592
37 27.298904 22.178967 -249.918625 -23.490471 12.146143 10.535481 252.381577
[R_mid_tent01]
36 23.228794 24.509907 226.238495 -156.703018 -16.511618 14.359691 228.744751
37 23.228794 24.509907 226.238495 -159.017670 -17.201574 17.143164 228.744751
[spine01]
36 -0.361383 -0.195265 0.000000 0.001981 0.001260 25.093359 0.410763
37 -0.361383 -0.195265 0.000000 0.001972 0.001274 24.273209 0.410763
[Bip01_Neck]
36 165.484543 71.581718 0.000119 176.643677 -1.657967 43.431911 180.302734
37 165.484543 71.581718 0.000119 176.643677 -1.657967 43.431911 180.302734
[L_humerus]
36 -13.983130 -135.272980 -120.471481 -5.480129 68.873367 84.573456 181.680161
37 -13.983130 -135.272980 -120.471481 -5.480129 68.873367 84.573456 181.680161
[R_humerus]
36 -13.983309 -135.273102 125.287651 27.830740 -69.921516 67.902298 184.909012
37 -13.983309 -135.273102 125.287651 27.830740 -69.921516 67.902298 184.909012
[weapon_bone]
36 235.964890 -300.705902 0.000000 0.000000 -89.951546 -128.212341 382.234833
37 235.964890 -300.705902 0.000000 0.000000 -89.951546 -128.212341 382.234833
[Bip01_Head]
36 213.326904 186.042358 7.559235 5.200446 6.151311 -43.834991 283.155914
37 213.326782 186.042236 7.559227 5.200446 6.151311 -43.834991 283.155731
[eye_left_bone]
36 -24.626970 125.451866 -64.772606 0.000000 -90.000000 -99.840431 143.318359
37 -24.626970 125.451866 -64.772606 0.000000 -90.000000 -99.840431 143.318359
[eye_right_bone]
36 -24.626970 125.451866 64.327362 0.000000 -89.965736 80.156380 143.117676
37 -24.626970 125.451866 64.327362 0.000000 -89.965736 80.156380 143.117676
[L_forearm]
36 322.776093 0.000000 -0.000119 0.000398 -0.002313 -109.535057 322.776093
37 322.776093 0.000000 -0.000119 0.000397 -0.002313 -109.492661 322.776093
[L_front_hand]
36 241.149185 -0.042021 -3.300071 -178.667953 -1.835447 -27.422350 241.171753
37 241.149185 -0.042021 -3.300071 -178.667953 -1.835447 -27.422342 241.171753
[L_weapon_bone]
36 156.183838 0.000000 0.000000 0.000014 0.000007 0.000001 156.183838
37 156.183838 0.000000 0.000000 0.000014 0.000007 0.000001 156.183838
[L_front_hand01_01]
36 86.095154 20.947098 -0.655860 -0.366594 -0.477154 75.385582 88.609184
37 86.095154 20.947098 -0.655860 -0.366594 -0.477154 75.385574 88.609184
[L_front_hand02_01]
36 86.935165 -11.437475 24.513514 154.399796 -59.883835 -61.369587 91.046425
37 86.935165 -11.437475 24.513514 154.399796 -59.883835 -61.369587 91.046425
[L_front_hand03_01]
36 86.637497 -14.123976 -20.424902 -153.913849 58.118130 -62.702866 90.126129
37 86.637497 -14.123976 -20.424902 -153.913849 58.118122 -62.702866 90.126129
[L_front_hand01_02]
36 71.020905 -0.000179 0.000030 0.000332 -0.002324 -106.274635 71.020905
37 71.020905 -0.000179 0.000030 0.000333 -0.002323 -106.308632 71.020905
[L_front_hand02_02]
36 71.020927 -0.000119 0.000060 0.000332 -0.002324 -106.274635 71.020927
37 71.020927 -0.000119 0.000060 0.000333 -0.002323 -106.308632 71.020927
[L_front_hand03_02]
36 71.020905 -0.000060 0.000060 0.000332 -0.002324 -106.274635 71.020905
37 71.020905 -0.000060 0.000060 0.000333 -0.002323 -106.308632 71.020905
[R_forearm]
36 322.776428 -0.000060 0.000030 0.202033 0.065373 -108.184975 322.776428
37 322.776428 -0.000060 0.000030 0.202064 0.065276 -108.130020 322.776428
[R_front_hand]
36 238.847015 -0.006795 2.210259 -2.635298 -10.645461 -26.312506 238.857239
37 238.847015 -0.006795 2.210259 -2.635298 -10.645461 -26.312506 238.857239
[R_weapon_bone]
36 155.664093 0.002503 -0.000030 0.003487 0.001180 -90.988930 155.664078
37 155.664093 0.002503 -0.000030 0.003487 0.001180 -90.988930 155.664078
[R_front_hand01_01]
36 87.624611 14.231146 22.918642 -154.633484 -59.950619 61.746037 91.683487
37 87.624611 14.231146 22.918642 -154.633499 -59.950619 61.746044 91.683487
[R_front_hand02_01]
36 89.356956 14.367283 -19.491137 154.602661 58.302849 63.744389 92.579636
37 89.356956 14.367283 -19.491137 154.602661 58.302849 63.744389 92.579636
[R_front_hand03_01]
36 87.286232 -22.307278 -0.143439 0.162155 -0.423168 -75.767921 90.091743
37 87.286232 -22.307278 -0.143439 0.162155 -0.423168 -75.767921 90.091743
[R_front_hand01_02]
36 71.020905 0.000060 0.000119 0.002323 -0.000334 106.381714 71.020905
37 71.020905 0.000060 0.000119 0.002323 -0.000334 106.381721 71.020905
[R_front_hand02_02]
36 71.020844 -0.000030 -0.000119 0.002323 -0.000334 106.381714 71.020836
37 71.020844 -0.000030 -0.000119 0.002323 -0.000334 106.381721 71.020836
[R_front_hand03_02]
36 71.020905 0.000000 0.000030 0.002323 -0.000334 106.381714 71.020905
37 71.020905 0.000000 0.000030 0.002323 -0.000334 106.381721 71.020905
[null_rope01_connect]
36 328.732483 0.000000 -0.000238 -149.955719 -61.454151 -115.776474 328.732483
37 328.732483 0.000000 -0.000238 -151.848679 -62.291817 -116.486801 328.732483
[Rope1_Seg01]
36 0.000034 -0.000278 -0.000274 70.532310 8.865348 -127.051971 0.000392
37 0.000035 -0.000285 -0.000282 64.623238 7.403186 -125.512749 0.000402
[Rope1_Seg02]
36 139.999863 -0.000179 0.000000 -20.775616 4.843768 4.938289 139.999863
37 139.999863 -0.000179 0.000000 -18.796774 4.740323 4.225340 139.999863
[Rope1_Seg03]
36 139.999924 0.000060 -0.000060 -17.498821 3.307360 7.232602 139.999924
37 139.999924 0.000060 -0.000060 -16.783438 3.593367 5.982020 139.999924
[Rope1_Seg04]
36 139.999924 -0.000060 -0.000119 -11.336638 0.910990 8.193743 139.999924
37 139.999924 -0.000060 -0.000119 -12.578550 1.767489 7.460994 139.999924
[Rope1_Seg05]
36 139.999832 0.000119 -0.000060 1.050185 -0.799577 -0.000715 139.999832
37 139.999832 0.000119 -0.000060 -1.171874 -1.093956 2.189304 139.999832
[Rope1_Seg06]
36 139.999954 0.000119 -0.000060 1.180724 -0.413172 -0.541707 139.999954
37 139.999954 0.000119 -0.000060 0.062261 -0.641653 0.659104 139.999954
[Rope1_Seg07]
36 139.999985 0.000060 0.000000 0.035838 -0.225911 0.224147 139.999985
37 139.999985 0.000060 0.000000 -0.465299 -0.306826 0.764556 139.999985
[Rope1_Seg09]
36 121.602913 0.000119 -0.000089 -89.793175 -1.359789 0.847147 121.602913
37 121.602913 0.000119 -0.000089 -89.793175 -1.359789 0.847147 121.602913
[L_mid_hand01]
36 103.859421 1.038730 8.195221 130.544373 -67.584534 -38.866943 104.187431
37 103.859421 1.038730 8.195221 130.544373 -67.584534 -38.866943 104.187431
[L_mid_hand02]
36 105.572853 -4.139662 -10.864139 -168.923172 43.409309 -73.498886 106.211075
37 105.572853 -4.139662 -10.864139 -168.923172 43.409309 -73.498886 106.211075
[L_mid_hand03]
36 104.641464 17.579376 -3.913581 -6.012627 17.808174 74.893669 106.179977
37 104.641464 17.579376 -3.913581 -6.012627 17.808174 74.893669 106.179977
[null_rope02_connect]
36 328.732849 0.000179 -0.000119 -142.706131 63.038322 -51.113594 328.732849
37 328.732849 0.000179 -0.000119 -142.911621 64.421082 -46.847340 328.732849
[Rope2_Seg01]
36 0.000111 -0.000262 0.000000 38.217350 4.303065 -46.355972 0.000284
37 0.000112 -0.000273 0.000000 35.820496 8.938525 -44.705097 0.000295
[Rope2_Seg02]
36 139.999741 -0.000060 -0.000119 16.995176 -16.678900 -2.497510 139.999756
37 139.999741 -0.000060 -0.000119 24.143349 -16.459978 -4.144489 139.999756
[Rope2_Seg03]
36 140.000107 0.000030 0.000000 1.802193 -10.563713 2.935079 140.000107
37 140.000107 0.000030 0.000000 0.938715 -11.179153 4.040334 140.000107
[Rope2_Seg04]
36 139.999802 0.000000 -0.000060 1.221016 -6.079051 1.289005 139.999802
37 139.999802 0.000000 -0.000060 2.105971 -7.075030 0.991522 139.999802
[Rope2_Seg05]
36 139.999985 -0.000060 0.000119 3.303371 -3.618532 -2.508700 139.999985
37 139.999985 -0.000060 0.000119 5.878816 -5.017862 -4.391144 139.999985
[Rope2_Seg06]
36 139.999893 -0.000030 -0.000119 4.087509 -3.128574 -4.016852 139.999893
37 139.999893 -0.000030 -0.000119 4.856627 -4.277761 -4.118692 139.999893
[Rope2_Seg07]
36 139.999893 0.000060 -0.000060 2.170252 -2.862972 -1.833971 139.999893
37 139.999893 0.000060 -0.000060 2.157920 -3.130018 -1.586402 139.999893
[Rope2_Seg09]
36 121.338966 0.000089 -0.000060 33.793236 -1.359788 -0.847141 121.338966
37 121.338966 0.000089 -0.000060 33.793236 -1.359788 -0.847141 121.338966
[R_mid_hand01]
36 104.680779 11.144459 -10.335981 -16.212059 45.237240 70.462852 105.778534
37 104.680779 11.144459 -10.335981 -16.212063 45.237247 70.462852 105.778534
[R_mid_hand02]
36 104.070427 2.443552 8.231699 49.067368 -67.749771 39.286453 104.424065
37 104.070427 2.443552 8.231699 49.067368 -67.749771 39.286453 104.424065
[R_mid_hand03]
36 106.028137 -11.221827 -5.996406 -177.101105 15.551026 -76.585571 106.788818
37 106.028137 -11.221827 -5.996406 -177.101105 15.551026 -76.585571 106.788818
[spine02]
36 129.756927 0.001550 0.000119 0.133960 -4.057936 -9.739167 129.756927
37 129.756927 0.001550 0.000119 0.193522 -4.054099 -10.585880 129.756927
[spine03]
36 78.614182 0.081756 -4.899032 1.901922 3.829173 16.586550 78.766724
37 78.614189 0.081764 -4.899032 1.898503 3.830294 16.533104 78.766731
[pelvis]
36 169.435242 0.051022 0.000000 -0.060806 -0.180111 14.304737 169.435257
37 169.435242 0.051022 0.000000 -0.060653 -0.180162 14.207535 169.435257
[null_rope03_connect]
36 -1.257226 -2.466202 137.391083 178.120804 -89.280174 -117.890007 137.418976
37 -1.257226 -2.466202 137.391083 171.609116 -89.301987 -111.487831 137.418976
[null_rope04_connect]
36 -1.259640 -2.480268 -137.844437 178.120804 -89.280174 -117.890007 137.872513
37 -1.259640 -2.480268 -137.844437 171.609116 -89.301987 -111.487831 137.872513
[Rope3_Seg01]
36 -0.000029 -0.000004 0.000274 -131.262344 20.472126 -76.680626 0.000275
37 -0.000029 -0.000003 0.000282 -132.162491 20.067659 -79.614647 0.000283
[Rope3_Seg02]
36 139.999924 -0.000119 0.000060 0.152940 -1.047551 -3.556404 139.999924
37 139.999924 -0.000119 0.000060 0.119812 -1.633027 -2.735548 139.999924
[Rope3_Seg03]
36 139.999924 -0.000119 0.000119 -0.137215 2.555108 -5.999799 139.999924
37 139.999924 -0.000119 0.000119 0.156560 0.210859 -4.583931 139.999924
[Rope3_Seg04]
36 139.999924 0.000119 0.000000 0.146694 -3.680274 1.184537 139.999924
37 139.999924 0.000119 0.000000 0.016014 -1.669965 -1.324196 139.999924
[Rope3_Seg05]
36 139.999924 -0.000238 0.000060 0.127917 -8.031546 7.320440 139.999924
37 139.999924 -0.000238 0.000060 -0.158088 -6.011673 7.002285 139.999924
[Rope3_Seg06]
36 139.999893 -0.000119 -0.000060 0.438204 -3.454133 3.086261 139.999893
37 139.999893 -0.000119 -0.000060 0.163462 -3.325029 3.975729 139.999893
[Rope3_Seg07]
36 139.999771 0.000060 -0.000119 0.524245 -1.880436 1.615531 139.999771
37 139.999771 0.000060 -0.000119 0.363190 -1.760418 1.905443 139.999771
[Rope3_Seg08]
36 139.999985 -0.000060 0.000000 0.545667 -1.140684 1.000279 139.999985
37 139.999985 -0.000060 0.000000 0.440583 -1.081133 1.184551 139.999985
[Rope3_Seg09]
36 90.185997 -0.000179 -0.000060 89.793228 -1.359877 -0.847183 90.185997
37 90.185997 -0.000179 -0.000060 89.793228 -1.359877 -0.847183 90.185997
[R_rear_hand01]
36 103.366196 -6.073594 -10.757982 -177.714203 24.565960 -73.910950 104.101845
37 103.366196 -6.073594 -10.757982 -177.714203 24.565960 -73.910950 104.101845
[R_rear_hand02]
36 100.509819 12.039542 -7.992327 -12.874829 36.868488 72.167213 101.543350
37 100.509819 12.039542 -7.992327 -12.874829 36.868488 72.167213 101.543350
[R_rear_hand03]
36 101.539970 5.215704 5.435467 71.484581 -71.816628 21.513813 101.819031
37 101.539970 5.215704 5.435467 71.484581 -71.816628 21.513813 101.819031
[Rope4_Seg01]
36 0.000010 0.000004 -0.000016 46.099789 19.142790 -113.660843 0.000019
37 0.000010 0.000003 -0.000012 45.680210 22.323864 -114.105370 0.000015
[Rope4_Seg02]
36 139.999985 0.000060 0.000119 0.283628 2.574912 4.174288 139.999985
37 139.999985 0.000060 0.000119 0.258982 2.459357 4.260010 139.999985
[Rope4_Seg03]
36 139.999924 0.000000 -0.000238 0.121222 3.754953 6.060282 139.999924
37 139.999924 0.000000 -0.000238 0.068195 3.599359 6.211797 139.999924
[Rope4_Seg04]
36 139.999985 0.000000 0.000119 -1.142324 7.162783 14.854028 139.999985
37 139.999985 0.000000 0.000119 -1.608003 6.930804 16.718214 139.999985
[Rope4_Seg05]
36 139.999802 -0.000060 -0.000119 -0.325851 6.120743 4.626245 139.999802
37 139.999802 -0.000060 -0.000119 0.297956 5.894466 2.483405 139.999802
[Rope4_Seg06]
36 139.999924 0.000000 0.000060 2.892878 0.628602 -6.764285 139.999924
37 139.999924 0.000000 0.000060 4.082293 0.519427 -10.317209 139.999924
[Rope4_Seg07]
36 139.999802 0.000000 0.000000 0.767777 0.989089 -1.208454 139.999802
37 139.999802 0.000000 0.000000 1.083320 0.776724 -2.444418 139.999802
[Rope4_Seg08]
36 139.999924 0.000000 0.000119 -1.075107 0.568775 -0.706010 139.999924
37 139.999924 0.000000 0.000119 -0.913596 0.420766 -1.406361 139.999924
[Rope4_Seg09]
36 90.185791 0.000060 0.000060 -135.617828 2.228885 0.850567 90.185791
37 90.185791 0.000060 0.000060 -135.617828 2.228885 0.850567 90.185791
[L_rear_hand01]
36 101.696655 -8.392275 -7.654577 -12.874829 -36.868488 107.832764 102.329041
37 101.696655 -8.392275 -7.654577 -12.874829 -36.868488 107.832764 102.329041
[L_rear_hand02]
36 102.726799 -1.568258 5.773216 71.484581 71.816628 158.486160 102.900848
37 102.726799 -1.568258 5.773216 71.484581 71.816628 158.486160 102.900848
[L_rear_hand03]
36 104.552910 9.721220 -10.420293 -177.714203 -24.565960 -106.089035 105.519653
37 104.552910 9.721220 -10.420293 -177.714203 -24.565960 -106.089035 105.519653
